<svg version="1.0" xmlns="http://www.w3.org/2000/svg" width="198.000000pt" height="193.000000pt" viewBox="0 0 198.000000 193.000000" preserveAspectRatio="xMidYMid meet" style="width: 652.145px; height: auto;"> <g transform="translate(0.000000,193.000000) scale(0.100000,-0.100000)" fill="#000000" stroke="none" class="">  <path d="M937 1734 c-7 -8 22 -95 39 -115 23 -26 16 -30 -22 -14 -20 8 -38 15 -40 15 -11 0 31 -66 57 -90 l30 -27 -24 -50 c-12 -27 -40 -65 -61 -84 -21 -18 -93 -99 -159 -179 -66 -80 -127 -153 -135 -163 -21 -24 -14 -27 38 -17 25 5 47 6 49 4 3 -2 -7 -17 -20 -32 -49 -53 -239 -312 -239 -325 0 -7 79 12 104 25 11 6 32 21 46 33 14 13 44 28 68 35 35 9 52 23 100 84 32 40 69 89 81 109 17 27 30 37 49 38 15 0 36 2 47 4 11 2 28 -3 38 -12 17 -16 16 -17 -13 -29 -16 -7 -30 -20 -30 -29 0 -17 25 -21 35 -5 8 13 202 13 210 0 9 -15 25 -12 25 5 0 18 -31 35 -64 35 -24 0 -56 23 -56 41 0 5 25 36 56 70 74 80 94 130 94 229 0 65 3 78 18 83 9 2 25 8 34 12 13 5 21 0 29 -19 12 -25 12 -25 26 -6 44 63 36 129 -22 194 -19 22 -35 43 -35 46 0 14 -58 32 -141 45 -89 13 -172 46 -193 77 -7 10 -15 15 -19 12z m70 -79 c25 -18 134 -45 181 -45 41 0 92 -25 92 -46 0 -8 -11 -27 -25 -42 -35 -38 -44 -81 -43 -203 0 -82 -3 -113 -17 -140 -32 -63 -57 -91 -114 -127 -31 -19 -61 -42 -67 -50 -8 -11 -13 -12 -18 -4 -4 7 -27 12 -52 12 -68 0 -53 32 21 45 22 4 47 9 57 11 26 8 107 113 118 155 22 82 -28 162 -111 175 -21 4 -39 11 -39 15 0 5 11 32 25 61 14 28 24 52 22 53 -1 2 -17 10 -34 19 -47 24 -41 34 20 29 44 -3 49 -2 34 9 -43 30 -96 88 -81 88 5 0 19 -7 31 -15z m326 -154 c18 -31 23 -101 7 -101 -5 0 -10 4 -10 10 0 5 -18 22 -40 36 l-40 26 21 29 c26 37 40 37 62 0z m-60 -75 c23 -18 22 -23 -8 -28 -21 -4 -25 -1 -25 18 0 27 7 29 33 10z m-204 -72 c32 -23 53 -78 46 -118 -4 -18 -26 -58 -51 -88 -48 -61 -34 -55 -221 -87 -47 -7 -68 -1 -45 13 5 3 36 39 70 79 44 54 58 76 48 80 -9 4 -36 -20 -73 -65 -94 -115 -96 -117 -138 -124 l-39 -7 37 44 c21 24 73 87 117 140 105 128 131 149 184 149 23 0 52 -7 65 -16z m-191 -322 c-16 -36 -186 -246 -206 -253 -14 -5 -26 -8 -27 -7 -2 2 35 51 81 111 66 84 80 107 65 107 -14 0 -52 -43 -121 -134 -93 -123 -144 -176 -157 -162 -3 2 24 42 58 88 35 46 88 117 118 158 29 41 55 77 58 80 3 4 53 11 121 19 8 0 12 -2 10 -7z m207 -12 c-3 -5 -12 -10 -18 -10 -7 0 -6 4 3 10 19 12 23 12 15 0z m-22 -51 c18 -20 17 -20 -5 -17 -12 2 -24 11 -26 21 -5 23 10 22 31 -4z" class=""></path>  <path d="M1167 1543 c-12 -11 -8 -41 7 -46 15 -6 36 11 36 29 0 6 -7 15 -16 18 -19 7 -19 7 -27 -1z"></path>   <path d="M1006 1312 c-6 -10 -76 -183 -76 -188 0 -2 8 -4 18 -4 12 0 26 23 48 83 17 45 34 90 39 100 5 12 3 17 -8 17 -9 0 -18 -4 -21 -8z"></path>                       <path d="M512 564 c-151 -77 -93 -304 78 -304 51 0 92 20 124 63 79 103 13 245 -117 254 -35 2 -63 -2 -85 -13z m152 -27 c80 -56 72 -202 -15 -249 -65 -36 -143 -9 -179 62 -71 138 70 274 194 187z" class=""></path>   <path d="M833 573 c-23 -4 -23 -7 -23 -159 0 -118 3 -154 13 -154 9 0 11 19 9 76 l-4 75 33 -3 c29 -3 38 -11 74 -73 23 -38 49 -71 58 -73 18 -4 23 13 8 23 -9 5 -91 124 -91 131 0 2 6 4 13 4 7 0 23 9 35 20 30 28 29 80 -1 108 -23 21 -84 34 -124 25z m107 -35 c45 -49 4 -118 -70 -118 l-40 0 0 70 0 70 45 0 c33 0 50 -6 65 -22z" class=""></path>  <path d="M1066 573 c-3 -3 -6 -75 -6 -160 0 -129 2 -153 15 -153 13 0 15 24 15 154 0 141 -5 177 -24 159z"></path> <path d="M1133 568 c-5 -10 -1 -10 60 -8 l47 1 0 -150 c0 -130 2 -151 16 -151 13 0 15 20 12 150 l-3 150 53 0 c28 0 52 3 52 8 0 4 -52 7 -116 7 -64 0 -118 -3 -121 -7z" class=""></path> <path d="M1462 564 c-53 -27 -82 -78 -82 -145 0 -97 62 -157 161 -159 112 -1 192 123 144 224 -39 81 -146 119 -223 80z m138 -17 c13 -7 35 -28 48 -47 20 -30 23 -44 20 -97 -5 -73 -29 -106 -90 -125 -138 -41 -237 145 -133 249 28 28 40 33 82 33 26 0 59 -6 73 -13z" class=""></path>  <path d="M250 415 l0 -155 80 0 c47 0 80 4 80 10 0 6 -30 10 -70 10 l-69 0 2 145 c2 110 -1 145 -10 145 -10 0 -13 -38 -13 -155z" class=""></path>        </g> </svg>